<svg id="Capa_1" data-name="Capa 1" xmlns="http://www.w3.org/2000/svg" viewBox="0 0 1080 1080"><defs><style>.cls-1{fill:none;stroke:#fff;stroke-miterlimit:10;stroke-width:14px;}</style></defs><path class="cls-1" d="M420.49,668.53H302.63a36.4,36.4,0,0,1-36.29-36.29V470.48h-159A36.39,36.39,0,0,1,71,434.2V260a36.39,36.39,0,0,1,36.29-36.28h159V62a36.4,36.4,0,0,1,36.29-36.29H476.81A36.4,36.4,0,0,1,513.1,62V223.73H677.6A36.39,36.39,0,0,1,713.89,260V434.2s-13.64,33.87-28.09,36.47"/><path class="cls-1" d="M556.05,963.81c-.28.3-.55,0-.6-.62s4.93-7.56,10.42-14.77,29-19.06,31.5-20.45l1.45-1.9C612.05,908.64,615,897.72,615,897.72c4.49-16.71,7.16-35.82,5.93-42.46s-11.76-23.55-15.18-24.91l-3.3-.22-7.6-.52c-8.38-.05-18.14-.43-21.69-.83s-18.74-.61-26.44-2-28-16.6-31.8-21.43l-3.77-4.14-2.3-2.51c-4.25-3.24-8.46-1.32-9.35,4.25s-2.33,33.16-3.33,50.44c0,0-1.19,20.51-5.22,46.31l-1.58,10.13a385.24,385.24,0,0,1,2.23,40.76c-.13,10.79-.77,45.21-.95,52.52l-.73,6.59-.33,3.05c-3.07,1.83-6.66,4-8,4.85l-.71,1.15c-2.42,3.9-5,7.75-6.79,12-2,5-5.36,7.49-10.5,7.31-20.89-.75-31.21-1.2-31.21-1.2-17.3-.76-37.79-2.14-45.55-3.06l-7-1c-6.17-.89-8.57-4.74-4.73-9.51l8.72-10.81c10.53-11.17,28.33-28.09,39.56-37.6l1.91-15.42c2.39-19.32.44-38.16-1.74-57.17-.52-4.53-.11-9.15-.41-13.71l-.84-13.14c-1-14.46-3.23-38.59-4.84-53.64l.25-13.64c.21-11.36,3.71-22.62,4.38-34,.52-8.82-.73-17.82-1.85-26.65a121.42,121.42,0,0,0-4.35-20.9c-7.83-25,.3-48.39,6.19-72.1,1.91-7.67,4.48-15.4,4.81-23.18.49-11.21,1.93-21.82,7.56-31.69,1.08-1.89,2.1-4.79,1.4-6.51-1.85-4.52-.74-7.53,2.44-10.91l1.33-1.42c-.05-3-4.49-5.27-9.87-5.1l3.51-8.54,2.45-6c-3.36-9-9.83-25.08-14.38-35.8l-3.25-10c-3.1-9.56-3.4-9.57-13.16-9.65-5.36,0-12.13-1.84-15.8-5.39-15.41-14.92-30-31.19-36.57-51.88-3.75-11.85-12.26-22.24-10.74-36.1,1.77-16.09,12.85-23.66,24.95-30.46,9.51-5.35,19.61-9.64,29.44-14.4,9-4.37,18-8.85,27.08-13.08,4.89-2.27,10-5.83,14.95-5.72,6,.13,11.79,3.72,17.77,5.47,4.36,1.27,9.17,3.49,13.28,2.69,25.31-5,50.58-8.3,76.57-7,10.89.55,21.24.53,30.84,6.33,1,.62,3.44,0,4.66-.87l9.43-6.5c13.49,3.51,33.62,11.4,44.72,17.52L647.24,369l11.33,2.68c11.92,5.62,24.28,15.36,27.48,21.64s4.54,33.15,3.51,44.71-5.47,47-6.55,53.26-8.32,26.64-12.74,31.77l-5.12-5.54c-5.9-6.37-10.42-14.2-14.59-21.91L647,489c-2.78-7.89-5.41-14.39-5.84-14.42s-2.79,5-4.31,11.19l-.74,5.75-1.54,11.88c-1.39,13.11-3.64,26.07-5,28.81L628,534.45c-6.36,9-2.79,17.23,8.24,18.83,19.69,2.87,27.94,4.11,27.94,4.11,17.12,2.55,34.44,5.6,38.48,6.76l3.73.88,13.81,3.25c13.69-5.41,33.38-14.66,43.75-20.57s47-25.63,57.79-31.46,45.26-20.56,51.39-22.08,36.66-4.4,53.94-5.29c0,0,9.82-.5,30.46-1.17,3.47-.11,7,1.19,10.46,2,5.18,1.14,10.31,3.25,15.5,3.41,10.37.31,17.11,7.47,25.12,12.16.78.46.22,5.95-.85,6.4l-9.27,3.87c-10.47,3.54-30.35,8.27-44.18,10.51S893.48,537,880.74,541.19s-53,32.76-65.92,44.27c0,0-1.24,1.1-13.83,11.88-5.59,4.78-5.58,9.44-2.13,15.41l7.25,12.56a480.79,480.79,0,0,1,23.18,52.51l2.78,13.89c2.79,14,4.84,27.45,12.52,40.4,12.15,20.5,14.28,36.55,14.28,36.55,2.27,17.16,5.35,36.38,6.84,42.71s7.09,27.32,8.86,32.57,3.84,33.38,4.1,50.69l1.2,32.87c.19,17.31,1.9,42.15,3.79,55.19l.81,11.93c.73,10.7-2.78,15.28-13.4,15.31-16.53.06-18.24-.09-18.24-.09-17.24-1.57-36.82-8.16-43.52-14.66l4.54-10.8,2.85-6.75a165.9,165.9,0,0,0,11.46-26.48c2.33-7.49,2.05-32.91,1.71-38.53s-3.14-23.42-4.26-27.29-5-16-6.09-18.33-2.78-15.48-4.63-24.57-27.86-32.63-37.95-41l-5.29-11.11c-4.79-10.07-13.34-11.53-22.44-4.66l-3.94,3c-5.26,2-15.87,7.48-23.57,12.23S707.41,833.7,707.41,844s-1.8,45.85-2.73,56.39-4.47,43.12-5.54,49,.75,35.14,3.24,52.24l2.12,15.57,1.11,8.21c.44,9.09-.6,19.32-2.31,22.73s-23.84,6.54-38,6.21-52.54-5.19-54.15-6.29-4.06-15.54-4.22-28.66l6-11.24c3.76-7.07,6.23-14.9,8.67-22.59l1.49-4.68c-4.14-1.43-18.06-3.46-30.92-4.51L580.5,975a25.8,25.8,0,0,1-9.25-3.16l-4.9-2.73C561.24,965.61,556.32,963.52,556.05,963.81Z"/></svg>