<svg id="Capa_1" data-name="Capa 1" xmlns="http://www.w3.org/2000/svg" viewBox="0 0 1080 1080"><defs><style>.cls-1,.cls-2{fill:none;}.cls-1,.cls-2,.cls-3{stroke:#fff;stroke-miterlimit:10;}.cls-1,.cls-3{stroke-width:4px;}.cls-2{stroke-width:10px;}.cls-3{fill:#fff;}</style></defs><path class="cls-1" d="M916.15,451.84c-9.52,11.93-26.85,18.44-41.08,12.43,6.51,14.53,2.51,32.46-7.92,44.49S840.9,527.39,825,529c-.9,0-1.6.1-2.61.1a116.45,116.45,0,0,1-5.71,35.67c-7.81,23-24.75,43.79-47.19,52.81-1.11,14.73-9.92,28.85-20.84,39.17a100.48,100.48,0,0,1-18,13.93h2.5c2.81,4.91,6,10.12,9.42,15.43,2.31,3.61,4.71,7.22,7.22,11A115.6,115.6,0,0,0,672,806.26a119,119,0,0,0,3.61,28.86,113.77,113.77,0,0,0-57.12,28,106.44,106.44,0,0,0-159.72,0,114.5,114.5,0,0,0-57.22-28,119,119,0,0,0,3.61-28.86,115.11,115.11,0,0,0-66.83-104.61c6.21-9.32,11.92-18.14,16.73-26.26a92.45,92.45,0,0,1-37.58-29.46,116.69,116.69,0,0,1-16.73-32.06,25.23,25.23,0,0,1-2.61.8c-15.53,3.51-32.56,2.3-46.29-5.81S228.56,585,230.07,569.18c-11.43,10.12-30,9.52-42.79,1.1S166.94,547,164,532s-1.9-30.56-.6-45.79c1.61-18.74,4.61-39.58,19.64-50.8-20-6.92-30.26-31-26.95-51.81s17.13-38.57,33-52.6,33.87-25.45,49.4-39.68a173.72,173.72,0,0,0,42.39-60.12c3.31-7.92,6.91-16.94,14.83-20,7.62-2.91,16,.9,23.25,4.5,30.06,15,59.92,30.06,89.88,45.09a12.79,12.79,0,0,0,1.7.91,31.21,31.21,0,0,1,3.71-4.51,192.5,192.5,0,0,1,91-31.57,190.19,190.19,0,0,1,96.6,1.21c.1,0,.2,0,.2.1a32.24,32.24,0,0,1,4.61,2.9c.4-.5.9-.9,1.3-1.4,23.65-23.75,47.2-47.4,70.84-71.24,5.82-5.72,12.53-12,20.75-11.63,8.51.4,14.73,7.82,20.34,14.23a174.41,174.41,0,0,0,59.22,43.69c19.34,8.52,40.08,13.63,59.52,21.94s38.17,20.65,47.89,39.48,7.62,44.69-9.12,57.62c17.84,5.91,27.36,24.65,34.68,42,6,14,12,28.36,14,43.59S925.57,439.72,916.15,451.84Z"/><path class="cls-1" d="M458.76,867a3.78,3.78,0,0,1-2.53-1,110.93,110.93,0,0,0-55.33-27.15,3.71,3.71,0,0,1-2.51-1.65,3.78,3.78,0,0,1-.5-3,115.25,115.25,0,0,0,3.5-28A111.8,111.8,0,0,0,336.63,705a3.79,3.79,0,0,1-2-2.42,3.75,3.75,0,0,1,.52-3.12c6.55-9.57,12.18-18.31,16.71-26a3.78,3.78,0,0,1,4.69-1.55,68.79,68.79,0,0,0,22.61,5.44,3.72,3.72,0,0,1,3.23,2.26c4.9,11.4,15.95,21.84,30.32,28.65a106.51,106.51,0,0,0,71,7.07,3.73,3.73,0,0,1,4.47,2.46c.67,3.26,11.85,60,104.46,45.07s85.32-72.56,85-75c0-.18,0-.78,0-1a3.75,3.75,0,0,1,3.49-3.75,102.94,102.94,0,0,0,47.37-15.57,3.73,3.73,0,0,1,2-.58h2.7a3.78,3.78,0,0,1,3.27,1.9c4.89,8.63,11,18.11,16.41,26.25a3.77,3.77,0,0,1,.41,3.28,3.71,3.71,0,0,1-2.33,2.34A111.46,111.46,0,0,0,675.75,806.3a115.36,115.36,0,0,0,3.49,28,3.76,3.76,0,0,1-3,4.6A110.21,110.21,0,0,0,621,866a3.32,3.32,0,0,1-2.74,1,3.72,3.72,0,0,1-2.62-1.27,102.69,102.69,0,0,0-154.08,0A3.74,3.74,0,0,1,459,867ZM406.09,832.2A118.27,118.27,0,0,1,458.46,858a110.21,110.21,0,0,1,160.32,0A117.56,117.56,0,0,1,671,832.2a122.83,122.83,0,0,1-2.81-25.9A119,119,0,0,1,743.9,695.38c-4.29-6.56-8.86-13.74-12.83-20.56a110.31,110.31,0,0,1-45.78,15.56c.3,13.87-4.47,65.78-91.46,80-86.48,14-107.67-33.22-111.89-46.83a114,114,0,0,1-72.51-8.41c-15.12-7.16-27-18.14-33-30.37a76.51,76.51,0,0,1-19.78-4.61c-3.69,6.08-8,12.79-12.86,20a119.39,119.39,0,0,1,65.14,106.2A122.47,122.47,0,0,1,406.09,832.2Z"/><path class="cls-1" d="M276.48,999.83h-8.81a3.76,3.76,0,0,1-2.66-1.09,5.73,5.73,0,0,1-1.11-1.91,3.47,3.47,0,0,1-.19-1.15,4,4,0,0,1,1.1-2.76c2-2,4-4.22,5.86-6.44a3.89,3.89,0,0,1,3.51-1.32,3.73,3.73,0,0,1,2.91,2.37c.9,2.37,1.88,4.74,2.87,7.1a3.76,3.76,0,0,1-3.48,5.2Zm-9-4.15h0Z"/><path class="cls-1" d="M810.17,999.83h-9.42a3.75,3.75,0,0,1-3.45-5.25c1-2.24,2-4.59,2.83-6.94a3.77,3.77,0,0,1,6.46-1,68.43,68.43,0,0,0,6.17,6.75,3.75,3.75,0,0,1-2.59,6.47Z"/><path class="cls-2" d="M583.85,642a28.27,28.27,0,0,1-22.57,3.67c-57-15.4-59.65-51.14-59.65-51.14C499.27,580,511.89,565.9,529.85,563c10.74-1.74,21,.94,28,6.49a3.72,3.72,0,0,0,5.18-.84c4.84-7.47,13.7-13.26,24.44-15,18-2.92,34.41,6.47,36.77,21C624.2,574.61,633,609.35,583.85,642Z"/><path class="cls-1" d="M588.22,735.85c-59.22,9.62-59.62-39.38-59.62-39.38,2.7-1.9,5.51-4,8.11-6.11,2.11-1.6,4.11-3.2,6.12-4.91,2.3-1.9,4.6-3.81,6.71-5.81,1.9-1.7,3.71-3.41,5.41-5.11,1.4-1.3,2.7-2.5,3.91-3.81A120.09,120.09,0,0,0,568,660.2q1.65-2.1,3-4.21a53.79,53.79,0,0,0,3.41-5.51c1,.9,2,1.81,3.1,2.71.81.7,1.61,1.3,2.51,2,.7.5,1.4,1,2.2,1.5a75.17,75.17,0,0,0,7,4.51c1.4.8,2.8,1.61,4.31,2.41,4.61,2.5,9.62,4.91,14.83,7.11,3.4,1.61,7,3,10.62,4.31,4.41,1.7,8.92,3.21,13.43,4.61v.1C633.31,682.55,645.73,726.43,588.22,735.85Z"/><path class="cls-2" d="M458.43,503.83c3.13,19.24-8.8,37.19-26.65,40.09s-34.86-10.34-38-29.58,8.8-37.2,26.66-40.1S455.3,484.58,458.43,503.83Z"/><path class="cls-3" d="M300.73,617.67a3.76,3.76,0,0,1-.94-7.4c29.43-7.59,54.77-33.6,64.58-66.28,8.8-29.54,5.86-64.51-8.28-98.48a3.75,3.75,0,0,1,6.48-3.69,11.66,11.66,0,0,0,7.85,4.35,17.93,17.93,0,0,0,13-3.31c5.88-4.52,9.82-12.05,12-23,4.1-20.31,1.36-41.62-1.28-62.24-.92-7.09-1.83-14.18-2.47-21.25a3.75,3.75,0,0,1,3.39-4.09,3.64,3.64,0,0,1,4.08,3.4c.65,7,1.55,14,2.45,21,2.73,21.22,5.55,43.16,1.2,64.68-2.54,12.79-7.38,21.78-14.81,27.49a25.49,25.49,0,0,1-18.64,4.76,20.79,20.79,0,0,1-2.3-.46c11.25,32.22,12.89,64.87,4.51,93-10.55,35.15-38,63.18-69.9,71.41A3.79,3.79,0,0,1,300.73,617.67ZM817,533.08c-31.24,0-63.4-17.56-83.23-45.87-16.91-24-25.71-55.48-25.22-89.62a23.18,23.18,0,0,1-2.18,1.24,25.46,25.46,0,0,1-19.05,1.3c-8.64-2.89-16.09-9.86-22.77-21.31-10.91-19-15.2-40.68-19.37-61.61-1.38-7-2.76-13.92-4.39-20.78a3.76,3.76,0,0,1,7.32-1.73c1.64,6.95,3,14,4.45,21,4,20.35,8.22,41.38,18.5,59.32,5.7,9.78,11.81,15.66,18.66,17.94a18,18,0,0,0,13.32-.91,11.78,11.78,0,0,0,6.18-6.64,3.76,3.76,0,0,1,7.31,1.47c-2.67,36.7,5.63,70.78,23.38,96,19.57,27.92,51.82,44.57,82.24,42.5a3.76,3.76,0,0,1,.53,7.5C820.77,533,818.88,533.08,817,533.08Z"/><path class="cls-3" d="M573.67,740.86c-13.61,0-24.69-3.56-33.1-10.64-15.39-13-15.72-32.87-15.73-33.71a3.78,3.78,0,0,1,1.58-3.11,212.91,212.91,0,0,0,29.63-25.19c6.74-7,12-13.79,15-19.5a3.73,3.73,0,0,1,2.71-1.93,3.68,3.68,0,0,1,3.18,1c7,6.59,18.7,13.56,33,19.6a223.68,223.68,0,0,0,23.51,8.69,3.76,3.76,0,0,1,2.64,3.59c.84,2.5,5.24,20.44-4.81,36.31-7.81,12.32-22.11,20.27-42.54,23.61h0A94.65,94.65,0,0,1,573.67,740.86Zm14.55-5h0Zm-55.73-37.53c.48,4.77,2.73,17.59,13,26.2,9.58,8.06,23.75,10.6,42.13,7.62h0c18.21-3,30.79-9.78,37.4-20.21,7.21-11.39,5.4-24.22,4.24-29.35A223.87,223.87,0,0,1,607,674.25c-13-5.46-24-11.74-31.71-18a114.49,114.49,0,0,1-13.87,17.13A221.27,221.27,0,0,1,532.49,698.32Z"/><path class="cls-3" d="M458.17,726a112.8,112.8,0,0,1-48.74-10.91c-15.12-7.16-27-18.14-33-30.37a77.06,77.06,0,0,1-22.82-5.83,96.27,96.27,0,0,1-39.11-30.64,120.39,120.39,0,0,1-16.1-29.74c-17.75,3.85-34.94,1.6-48.45-6.37-13.35-7.89-22.2-21.66-23.57-35.84-12,6.31-28.49,5.44-41.12-2.84s-21.39-22.69-24.87-40.7c-3-15.08-2.07-30.13-.66-46.83,1.5-17.47,4.18-36.81,16.4-49.41-18.67-10-26.77-34-23.68-53.46,2.89-18.84,14.39-37.3,34.18-54.84,7.66-6.77,15.88-13,23.83-19,8.61-6.53,17.52-13.28,25.53-20.61a170.48,170.48,0,0,0,41.46-58.82c3.73-8.93,7.7-18.45,16.92-22.07,9.61-3.67,20.06,1.52,26.3,4.64q26.06,13,52,26.12L409.41,257c.68-.84,1.41-1.65,2.19-2.44A195.71,195.71,0,0,1,505,221.88c31.33-8,65.4-7.57,97.89,1.32h0a3.78,3.78,0,0,1,.89.36h0a27.54,27.54,0,0,1,2.41,1.37q33.35-33.35,66.58-67l3.41-3.44c6.72-6.7,13.91-13.17,23.6-12.73,9.48.44,16,7.71,21.73,14.13l1.21,1.33a171.42,171.42,0,0,0,58,42.78c9.79,4.32,20.23,7.83,30.32,11.23,9.63,3.25,19.58,6.6,29.14,10.69,24.26,10.38,41,24.25,49.76,41.21,9.14,17.44,9,42.74-5.56,58.17,15.15,7.8,24,24.52,31.24,41.69,5.69,13.31,12.16,28.41,14.29,44.56,2.27,18.14-1.52,34.67-10.67,46.57l0,.05c-9.52,12-24.63,17.94-38.22,15.66,3.22,13.83-.77,29.7-10.88,41.47s-25.84,19.38-44,21.35A119.22,119.22,0,0,1,820.25,566c-8.44,24.78-26,44.87-47.26,54.22-1.7,13.55-9.55,27.76-21.77,39.32a98.41,98.41,0,0,1-18.9,14.53,110.21,110.21,0,0,1-50.75,16.64c-2.66.23-5.34.32-8.05.32-13.61,0-30.42-4.16-42.19-7.67a3.62,3.62,0,0,1-.85-.38A224.45,224.45,0,0,1,607,674.25c-13-5.46-24-11.74-31.71-18a114.49,114.49,0,0,1-13.87,17.13,222.61,222.61,0,0,1-30.69,26.13c-13.67,9.87-27.6,17.52-38.2,20.94-2.17.8-4.59,1.53-7,2.16A112.88,112.88,0,0,1,458.17,726ZM300.73,610.15a4,4,0,0,1,1.51.31,3.75,3.75,0,0,1,2.05,2.24,112.84,112.84,0,0,0,16.2,31,88.62,88.62,0,0,0,36,28.23,69,69,0,0,0,22.63,5.44,3.72,3.72,0,0,1,3.23,2.26c4.9,11.4,15.95,21.84,30.32,28.65a106.51,106.51,0,0,0,71,7.07c2.14-.56,4.33-1.23,6.44-2,10-3.24,23.17-10.5,36.25-20a213.66,213.66,0,0,0,29.66-25.22c6.74-7,12-13.79,15-19.5a3.73,3.73,0,0,1,2.71-1.93,3.68,3.68,0,0,1,3.18,1c7,6.59,18.7,13.56,33,19.6a223.68,223.68,0,0,0,23.51,8.69,4,4,0,0,1,.76.33c15.85,4.69,29.77,7.19,39.77,7.12,2.33,0,4.63-.11,6.94-.29a102.94,102.94,0,0,0,47.41-15.57A92.65,92.65,0,0,0,746,654.12c11.63-11,18.8-24.39,19.72-36.78a3.75,3.75,0,0,1,2.35-3.21c20.2-8.12,37-27,45-50.53a112.18,112.18,0,0,0,5.52-34.49,3.76,3.76,0,0,1,3.76-3.73l2.6-.1c15.9-1.62,30.38-8.49,39.35-18.84,10-11.67,13-28,7.33-40.6a3.76,3.76,0,0,1,4.88-5c11.89,5,27.62.15,36.68-11.27,7.8-10.17,11.12-25.12,9.14-41-2-15.1-8.23-29.7-13.75-42.58-7.44-17.61-16.51-34.63-32.4-39.89a3.77,3.77,0,0,1-1.11-6.56c16-12.24,16.67-36.51,8.09-52.89-8-15.38-23.44-28.08-46.05-37.76-9.29-4-19.1-7.28-28.59-10.48-10.25-3.45-20.85-7-31-11.48a179.28,179.28,0,0,1-60.52-44.64L715.87,161c-5-5.57-10.16-11.34-16.5-11.64-6.69-.36-12.42,5-17.92,10.53l-3.39,3.43q-33.76,34-67.44,67.81a6.53,6.53,0,0,1-.66.71c-1.26,1.56-3.94,2.25-5.53,1.07a29,29,0,0,0-3.93-2.51,186,186,0,0,0-94.33-1.09,189.59,189.59,0,0,0-89.83,31.06,43.38,43.38,0,0,0-2.68,3.5,3.73,3.73,0,0,1-4.78,1.24l-1.69-.79-37.94-19.09q-25.94-13.08-52-26.12c-6.92-3.46-14.21-6.67-20.23-4.35-6.21,2.44-9.39,10.06-12.47,17.44a178.75,178.75,0,0,1-43.54,62c-8.27,7.57-17.32,14.43-26.07,21.05-7.85,5.94-15.95,12.09-23.37,18.67-18.46,16.34-29.14,33.29-31.75,50.36-2.91,18.29,5.42,41.11,24.37,47.69a3.76,3.76,0,0,1,1,6.55c-13.73,10.33-16.51,30.25-18,48.12-1.38,16.11-2.29,30.6.54,44.73,3.05,15.8,10.93,28.86,21.62,35.88,12.23,8,28.67,7.69,38.23-.78a3.77,3.77,0,0,1,4.19-.53,3.74,3.74,0,0,1,2,3.7c-1.3,13.78,6.7,28.29,19.91,36.09,11.84,7,27.73,9,43.56,5.38a8.14,8.14,0,0,1,.92-.26,5.33,5.33,0,0,0,1-.31A3.77,3.77,0,0,1,300.73,610.15ZM916.18,451.88h0Z"/><path class="cls-3" d="M300.73,617.67a3.76,3.76,0,0,1-.94-7.4c29.43-7.59,54.77-33.6,64.58-66.28,8.8-29.54,5.86-64.51-8.28-98.48a3.75,3.75,0,0,1,6.48-3.69,11.66,11.66,0,0,0,7.85,4.35,17.93,17.93,0,0,0,13-3.31c5.88-4.52,9.82-12.05,12-23,4.1-20.31,1.36-41.62-1.28-62.24-.92-7.09-1.83-14.18-2.47-21.25a3.75,3.75,0,0,1,3.39-4.09,3.64,3.64,0,0,1,4.08,3.4c.65,7,1.55,14,2.45,21,2.73,21.22,5.55,43.16,1.2,64.68-2.54,12.79-7.38,21.78-14.81,27.49a25.49,25.49,0,0,1-18.64,4.76,20.79,20.79,0,0,1-2.3-.46c11.25,32.22,12.89,64.87,4.51,93-10.55,35.15-38,63.18-69.9,71.41A3.79,3.79,0,0,1,300.73,617.67Z"/><path class="cls-3" d="M817,533.08c-31.24,0-63.4-17.56-83.23-45.87-16.91-24-25.71-55.48-25.22-89.62a23.18,23.18,0,0,1-2.18,1.24,25.46,25.46,0,0,1-19.05,1.3c-8.64-2.89-16.09-9.86-22.77-21.31-10.91-19-15.2-40.68-19.37-61.61-1.38-7-2.76-13.92-4.39-20.78a3.76,3.76,0,0,1,7.32-1.73c1.64,6.95,3,14,4.45,21,4,20.35,8.22,41.38,18.5,59.32,5.7,9.78,11.81,15.66,18.66,17.94a18,18,0,0,0,13.32-.91,11.78,11.78,0,0,0,6.18-6.64,3.76,3.76,0,0,1,7.31,1.47c-2.67,36.7,5.63,70.78,23.38,96,19.57,27.92,51.82,44.57,82.24,42.5a3.76,3.76,0,0,1,.53,7.5C820.77,533,818.88,533.08,817,533.08Z"/><path class="cls-3" d="M564,772.9C491,772.9,481.11,720.55,481,720a3.47,3.47,0,0,1,.27-2.85,3.67,3.67,0,0,1,2.37-1.71c2.19-.57,4.38-1.24,6.49-2,10-3.24,23.17-10.5,36.25-20a3.85,3.85,0,0,1,3.9-.31,3.79,3.79,0,0,1,2.06,3.32c0,.17.37,17.38,13.13,28.08,9.58,8.06,23.75,10.6,42.13,7.62,18.21-3,30.79-9.78,37.4-20.21,8.33-13.16,4.62-28.26,3.79-31.15a3.75,3.75,0,0,1,1-3.71,3.8,3.8,0,0,1,3.71-.93c16.2,4.84,30.3,7.44,40.58,7.36,2.33,0,4.63-.11,6.94-.29a3.56,3.56,0,0,1,2.85,1,3.74,3.74,0,0,1,1.21,2.76c.06.5,9.08,67-91.23,83.37h0A186.88,186.88,0,0,1,564,772.9Zm29.28-6.28h0Zm-104.08-45c4.07,13.21,23.07,54.28,103.48,41.27,81.71-13.31,85.66-59.53,85.2-72-1.44,0-2.9,0-4.31.08-11.43,0-25.13-2.94-36.2-6,1,7.42,1.13,19.68-6,30.89-7.81,12.32-22.11,20.27-42.54,23.61-20.69,3.36-36.92.21-48.25-9.34-10.05-8.48-13.68-19.91-15-27-12,8.11-23.76,14.32-33,17.31C491.49,720.89,490.33,721.27,489.15,721.64Z"/><path class="cls-3" d="M581.81,700.33a3.75,3.75,0,0,1-3.71-3.16l-7.42-46.09a3.76,3.76,0,0,1,7.42-1.19L585.52,696a3.76,3.76,0,0,1-3.12,4.3A4,4,0,0,1,581.81,700.33Z"/><circle class="cls-2" cx="433.44" cy="494.46" r="13"/><path class="cls-2" d="M702.53,464.13c3.13,19.25-8.8,37.2-26.65,40.1s-34.86-10.34-38-29.59,8.81-37.19,26.66-40.1S699.41,444.89,702.53,464.13Z"/><circle class="cls-2" cx="677.55" cy="454.77" r="13"/><path class="cls-1" d="M639.42,16.18,625.3,164.92S587.76,194.61,511.51,207s-121.31-3.86-121.31-3.86L329.72,66.54,430.58,112.6l51.8-84.75,76,64Z"/><path class="cls-1" d="M455.51,215.47c-41.59,0-65.23-8.3-66.58-8.79a3.72,3.72,0,0,1-2.16-2L326.29,68.06a3.76,3.76,0,0,1,5-4.94l97.83,44.68,50.05-81.91a3.76,3.76,0,0,1,2.6-1.75,3.62,3.62,0,0,1,3,.83l73.44,61.84,78.63-73.37a3.75,3.75,0,0,1,6.3,3.1L629,165.28a3.79,3.79,0,0,1-1.41,2.59c-1.56,1.23-39.19,30.44-115.51,42.85A353.49,353.49,0,0,1,455.51,215.47ZM393,200.09c8.32,2.56,51.23,14.06,117.94,3.21S614.64,168,621.72,162.89l13-137.21L560.93,94.57a3.77,3.77,0,0,1-5,.13L483.31,33.54l-49.52,81A3.76,3.76,0,0,1,429,116L337.17,74.07Z"/><path class="cls-1" d="M985,923.83a102.32,102.32,0,0,1-174.86,72.25,74.46,74.46,0,0,1-6.51-7.11c-.9,2.4-1.9,4.81-2.9,7.11a115.21,115.21,0,0,1-197,21.84,106.41,106.41,0,0,1-130.36-.1,115.05,115.05,0,0,1-196.9-21.74c-1-2.41-2-4.81-2.91-7.21-1.9,2.3-4,4.61-6.11,6.71a102.36,102.36,0,1,1-92-172.35,117.35,117.35,0,0,1-1.2-16.93A115.46,115.46,0,0,1,289.71,690.86a112.89,112.89,0,0,1,48.6,10.82A115.14,115.14,0,0,1,405.15,806.3a119.45,119.45,0,0,1-3.61,28.86,114.51,114.51,0,0,1,57.21,28.05,106.45,106.45,0,0,1,159.73,0,113.78,113.78,0,0,1,57.11-28.05A119.45,119.45,0,0,1,672,806.3a115.6,115.6,0,0,1,77.76-109.12A115.44,115.44,0,0,1,902.85,806.3a117.35,117.35,0,0,1-1.2,16.93A102.32,102.32,0,0,1,985,923.83Z"/><path class="cls-1" d="M695.74,1067.58a118.11,118.11,0,0,1-92.7-44.44,110.18,110.18,0,0,1-128.95-.09,117.59,117.59,0,0,1-92.69,44.53,119.06,119.06,0,0,1-108.34-70c-.24-.56-.47-1.12-.71-1.69-.37.4-.74.79-1.12,1.18l-1.08,1.2a106.15,106.15,0,1,1-98.84-178.06,120.89,120.89,0,0,1-.78-14A119.32,119.32,0,0,1,289.71,687.1a116.89,116.89,0,0,1,50.09,11.08A119.35,119.35,0,0,1,408.91,806.3a122.47,122.47,0,0,1-2.82,25.9A118.27,118.27,0,0,1,458.46,858a110.21,110.21,0,0,1,160.32,0A117.56,117.56,0,0,1,671,832.2a122.83,122.83,0,0,1-2.81-25.9,119,119,0,0,1,80.19-112.57,115.82,115.82,0,0,1,39-6.63A119.51,119.51,0,0,1,905.83,820.24a106.15,106.15,0,1,1-98.32,178.49c-.9-.85-1.79-1.75-2.66-2.67l-.66,1.51A119.35,119.35,0,0,1,695.74,1067.58Zm-91.29-54.95,2.29,3a111.45,111.45,0,0,0,190.58-21.14c.95-2.18,1.94-4.53,2.81-6.88l2.32-6.19,4.14,5.16a68.43,68.43,0,0,0,6.17,6.75A98.6,98.6,0,1,0,901,826.93l-3.55-.67.51-3.57A111.93,111.93,0,0,0,787.42,694.62a108.45,108.45,0,0,0-36.51,6.2A111.47,111.47,0,0,0,675.75,806.3a115.36,115.36,0,0,0,3.49,28l1,3.91-4,.69A110.21,110.21,0,0,0,621,866l-2.84,2.57-2.52-2.87a102.69,102.69,0,0,0-154.08,0l-2.52,2.86L456.23,866a110.93,110.93,0,0,0-55.33-27.15l-4-.69,1-3.91a115.25,115.25,0,0,0,3.5-28A111.8,111.8,0,0,0,336.63,705a109.29,109.29,0,0,0-46.92-10.38A111.8,111.8,0,0,0,178,806.3a113.44,113.44,0,0,0,1.16,16.39l.51,3.56-3.54.67a98.64,98.64,0,1,0,87.54,167.2l1.1-1.2c2-2,4-4.22,5.86-6.44l4.13-5,2.29,6.06c.9,2.37,1.88,4.74,2.86,7.1a111.49,111.49,0,0,0,101.45,65.43,110.2,110.2,0,0,0,89-44.49l2.29-3.06,3,2.34a102.66,102.66,0,0,0,125.76.1Z"/><path class="cls-1" d="M206.44,670.22a45.49,45.49,0,1,1,12.93-63A45.44,45.44,0,0,1,206.44,670.22Z"/><path class="cls-1" d="M127.69,781.75A61,61,0,1,1,145,697.18,61,61,0,0,1,127.69,781.75Z"/><path class="cls-1" d="M48.22,620.12A29.48,29.48,0,1,1,89,628.44,29.45,29.45,0,0,1,48.22,620.12Z"/><path class="cls-1" d="M181.45,681.51a49.28,49.28,0,1,1,27.07-8.15A49.27,49.27,0,0,1,181.45,681.51Zm-.14-91a41.73,41.73,0,1,0,34.92,18.74h0A41.79,41.79,0,0,0,181.31,590.5Z"/><path class="cls-1" d="M94.21,795.56a64.78,64.78,0,1,1,54-100.47h0a64.76,64.76,0,0,1-54,100.46Zm-.19-122a57.26,57.26,0,1,0,47.89,25.7A56.87,56.87,0,0,0,94,673.53Z"/><circle class="cls-1" cx="72.78" cy="603.85" r="29.48" transform="translate(-533.33 553.16) rotate(-78.35)"/><path class="cls-1" d="M72.85,637.1a33.6,33.6,0,0,1-6.74-.69,33.24,33.24,0,1,1,34.4-50.87h0A33.26,33.26,0,0,1,72.85,637.1Zm-.12-59a25.72,25.72,0,1,0,21.51,11.54A25.56,25.56,0,0,0,72.73,578.14Z"/><path class="cls-1" d="M899.34,645.17a29.47,29.47,0,1,1-40.78-8.42A29.52,29.52,0,0,1,899.34,645.17Z"/><path class="cls-1" d="M944.14,651.08A45.53,45.53,0,1,1,1007.26,664,45.52,45.52,0,0,1,944.14,651.08Z"/><path class="cls-1" d="M1019.59,821a61,61,0,1,1,17.33-84.58A61,61,0,0,1,1019.59,821Z"/><path class="cls-1" d="M982.24,675.27a49.25,49.25,0,1,1,27.07-8.14A49.29,49.29,0,0,1,982.24,675.27Zm-.17-91a41.87,41.87,0,1,0,8.46.86A41.48,41.48,0,0,0,982.07,584.24Z"/><path class="cls-1" d="M986.07,834.88A65.63,65.63,0,0,1,973,833.55,64.79,64.79,0,1,1,1040,734.38h0a64.81,64.81,0,0,1-53.94,100.5Zm-.22-122.06a57.25,57.25,0,1,0,47.9,25.7A56.87,56.87,0,0,0,985.85,712.82Z"/><path class="cls-1" d="M874.83,694.63a33.21,33.21,0,1,1,18.26-5.49A33.24,33.24,0,0,1,874.83,694.63Zm-.11-59a25.72,25.72,0,0,0-21.42,39.89,25.72,25.72,0,1,0,42.94-28.33h0a25.56,25.56,0,0,0-16.31-11A26.24,26.24,0,0,0,874.72,635.68Z"/><path class="cls-3" d="M198,823.4a3.76,3.76,0,0,1-3.71-3.19,100.89,100.89,0,0,1,13.05-66.87A102.33,102.33,0,0,1,260,710.11a3.76,3.76,0,1,1,2.53,7.08,93.14,93.14,0,0,0-60.81,101.89,3.76,3.76,0,0,1-3.15,4.28A3.56,3.56,0,0,1,198,823.4Z"/><path class="cls-3" d="M151,989.94a3.79,3.79,0,0,1-1.91-.52A73.88,73.88,0,0,1,129.68,878.6a3.76,3.76,0,1,1,5.8,4.8,66.33,66.33,0,0,0,17.45,99.54,3.76,3.76,0,0,1-1.9,7Z"/><path class="cls-3" d="M877.35,822.46h-.15a3.76,3.76,0,0,1-3.61-3.9,85.1,85.1,0,0,0-76.93-88.13,3.74,3.74,0,0,1-3.38-4.09,3.78,3.78,0,0,1,4.09-3.38,92.6,92.6,0,0,1,83.73,95.89A3.76,3.76,0,0,1,877.35,822.46Z"/><path class="cls-3" d="M903,1004.62a3.76,3.76,0,0,1-1-7.37c23-6.52,42.29-25.53,49.12-48.46s1.08-49.37-14.6-67.42a3.76,3.76,0,0,1,5.67-4.93c17.33,19.93,23.67,49.18,16.13,74.51s-28.85,46.33-54.27,53.52A3.67,3.67,0,0,1,903,1004.62Z"/><path class="cls-3" d="M540.27,1014A68.93,68.93,0,0,1,471.58,938a3.8,3.8,0,0,1,4.12-3.36,3.76,3.76,0,0,1,3.36,4.12,61.42,61.42,0,0,0,63.48,67.6c2.17.2,3.82,1.54,3.9,3.61a3.76,3.76,0,0,1-3.61,3.91C542,1013.94,541.12,1014,540.27,1014Z"/></svg>